<mxfile host="app.diagrams.net" modified="2024-06-24T14:21:26.810Z" agent="Mozilla/5.0 (Windows NT 10.0; Win64; x64) AppleWebKit/537.36 (KHTML, like Gecko) Chrome/126.0.0.0 Safari/537.36 Edg/126.0.0.0" etag="nZHJ_CrvXnUNvrGGNpHV" version="24.6.0" type="device">
  <diagram id="prtHgNgQTEPvFCAcTncT" name="Page-1">
    <mxGraphModel dx="1811" dy="549" grid="1" gridSize="10" guides="1" tooltips="1" connect="1" arrows="1" fold="1" page="1" pageScale="1" pageWidth="827" pageHeight="1169" math="0" shadow="0">
      <root>
        <mxCell id="0" />
        <mxCell id="1" parent="0" />
        <mxCell id="XlIno4v38W7UMngcY4H5-6" value="&lt;div&gt;MitarbeiterVerwaltung&lt;/div&gt;&lt;div&gt;Modul (Python)&lt;/div&gt;" style="image;html=1;image=img/lib/clip_art/computers/Virtual_Application_128x128.png" vertex="1" parent="1">
          <mxGeometry x="-80" y="655" width="80" height="80" as="geometry" />
        </mxCell>
        <mxCell id="XlIno4v38W7UMngcY4H5-7" value="fastapi&lt;div&gt;REST-Schnitstelle&lt;/div&gt;&lt;div&gt;(Python)&lt;/div&gt;" style="image;html=1;image=img/lib/clip_art/networking/Cloud_Server_128x128.png" vertex="1" parent="1">
          <mxGeometry x="180" y="650" width="80" height="80" as="geometry" />
        </mxCell>
        <mxCell id="XlIno4v38W7UMngcY4H5-8" value="Mitarbeiterverwaltung&lt;div&gt;Anwendung (Website)&lt;/div&gt;&lt;div&gt;Angular (TypeScript)&lt;/div&gt;" style="sketch=0;pointerEvents=1;shadow=0;dashed=0;html=1;strokeColor=none;fillColor=#505050;labelPosition=center;verticalLabelPosition=bottom;verticalAlign=top;outlineConnect=0;align=center;shape=mxgraph.office.concepts.website;" vertex="1" parent="1">
          <mxGeometry x="450" y="655" width="80" height="70" as="geometry" />
        </mxCell>
        <mxCell id="XlIno4v38W7UMngcY4H5-9" value="SQLite3&lt;div&gt;Datenbank&lt;/div&gt;" style="image;html=1;image=img/lib/clip_art/computers/Database_128x128.png" vertex="1" parent="1">
          <mxGeometry x="-280" y="655" width="80" height="80" as="geometry" />
        </mxCell>
        <mxCell id="XlIno4v38W7UMngcY4H5-10" value="" style="shape=flexArrow;endArrow=classic;startArrow=classic;html=1;rounded=0;" edge="1" parent="1">
          <mxGeometry width="100" height="100" relative="1" as="geometry">
            <mxPoint x="-190" y="705" as="sourcePoint" />
            <mxPoint x="-110" y="705" as="targetPoint" />
          </mxGeometry>
        </mxCell>
        <mxCell id="XlIno4v38W7UMngcY4H5-11" value="databaseservice.py&lt;br&gt;SQLite3 Modul" style="edgeLabel;html=1;align=center;verticalAlign=middle;resizable=0;points=[];" vertex="1" connectable="0" parent="XlIno4v38W7UMngcY4H5-10">
          <mxGeometry x="-0.0467" y="2" relative="1" as="geometry">
            <mxPoint x="2" y="32" as="offset" />
          </mxGeometry>
        </mxCell>
        <mxCell id="XlIno4v38W7UMngcY4H5-12" value="" style="shape=flexArrow;endArrow=classic;startArrow=classic;html=1;rounded=0;" edge="1" parent="1">
          <mxGeometry width="100" height="100" relative="1" as="geometry">
            <mxPoint x="50" y="705" as="sourcePoint" />
            <mxPoint x="130" y="705" as="targetPoint" />
          </mxGeometry>
        </mxCell>
        <mxCell id="XlIno4v38W7UMngcY4H5-13" value="api.py&lt;br&gt;mitarbeiterverwaltung.py" style="edgeLabel;html=1;align=center;verticalAlign=middle;resizable=0;points=[];" vertex="1" connectable="0" parent="XlIno4v38W7UMngcY4H5-12">
          <mxGeometry x="-0.0467" y="2" relative="1" as="geometry">
            <mxPoint x="2" y="32" as="offset" />
          </mxGeometry>
        </mxCell>
        <mxCell id="XlIno4v38W7UMngcY4H5-14" value="" style="shape=flexArrow;endArrow=classic;startArrow=classic;html=1;rounded=0;" edge="1" parent="1">
          <mxGeometry width="100" height="100" relative="1" as="geometry">
            <mxPoint x="320" y="694.76" as="sourcePoint" />
            <mxPoint x="400" y="694.76" as="targetPoint" />
            <Array as="points">
              <mxPoint x="370" y="695" />
            </Array>
          </mxGeometry>
        </mxCell>
        <mxCell id="XlIno4v38W7UMngcY4H5-15" value="REST API&lt;br&gt;API-Client genertiert mit&lt;br&gt;NSwag mit Hilfe der&lt;br&gt;OpenAPI-Dokumentation" style="edgeLabel;html=1;align=center;verticalAlign=middle;resizable=0;points=[];" vertex="1" connectable="0" parent="XlIno4v38W7UMngcY4H5-14">
          <mxGeometry x="-0.0467" y="2" relative="1" as="geometry">
            <mxPoint x="-8" y="52" as="offset" />
          </mxGeometry>
        </mxCell>
      </root>
    </mxGraphModel>
  </diagram>
</mxfile>
